HIERARCHY
ROOT SpineBase
{
  OFFSET 0.000000 0.000000 0.000000
  CHANNELS 6 Xposition Yposition Zposition Zrotation Xrotation Yrotation
  JOINT SpineMid
  {
    OFFSET 0.000000 30.972615 0.000000
    CHANNELS 3 Zrotation Xrotation Yrotation
    JOINT SpineShoulder
    {
      OFFSET 0.011553 22.948926 -0.758173
      CHANNELS 3 Zrotation Xrotation Yrotation
      JOINT Neck
      {
        OFFSET -0.020313 7.578902 -0.581922
        CHANNELS 3 Zrotation Xrotation Yrotation
        JOINT Head
        {
          OFFSET 4.465943 14.178290 -0.375626
          CHANNELS 3 Zrotation Xrotation Yrotation
          End Site
          {
            OFFSET 0 0 0
          }
        }
      }
      JOINT ShoulderLeft
      {
        OFFSET -12.565929 -0.993001 -5.763579
        CHANNELS 3 Zrotation Xrotation Yrotation
        JOINT ElbowLeft
        {
          OFFSET -13.383811 -14.309408 -3.429437
          CHANNELS 3 Zrotation Xrotation Yrotation
          JOINT WristLeft
          {
            OFFSET -0.470827 -19.306950 -2.957189
            CHANNELS 3 Zrotation Xrotation Yrotation
            JOINT HandLeft
            {
              OFFSET 6.703941 -4.215168 -0.433234
              CHANNELS 3 Zrotation Xrotation Yrotation
              JOINT HandTipLeft
              {
                OFFSET 0.098999 -4.262705 5.223992
                CHANNELS 3 Zrotation Xrotation Yrotation
                End Site
                {
                  OFFSET 0 0 0
                }
              }
              JOINT ThumbLeft
              {
                OFFSET 0.070191 2.067714 -5.006653
                CHANNELS 3 Zrotation Xrotation Yrotation
                End Site
                {
                  OFFSET 0 0 0
                }
              }
            }
          }
        }
      }
      JOINT ShoulderRight
      {
        OFFSET 17.499330 -4.921963 4.210443
        CHANNELS 3 Zrotation Xrotation Yrotation
        JOINT ElbowRight
        {
          OFFSET 2.771750 -23.968889 2.330237
          CHANNELS 3 Zrotation Xrotation Yrotation
          JOINT WristRight
          {
            OFFSET -6.029802 -19.059502 -14.986143
            CHANNELS 3 Zrotation Xrotation Yrotation
            JOINT HandRight
            {
              OFFSET -2.552982 -3.164328 -0.814960
              CHANNELS 3 Zrotation Xrotation Yrotation
              JOINT HandTipRight
              {
                OFFSET -2.252386 -3.264807 -2.292936
                CHANNELS 3 Zrotation Xrotation Yrotation
                End Site
                {
                  OFFSET 0 0 0
                }
              }
              JOINT ThumbRight
              {
                OFFSET -3.337623 0.724390 -2.455280
                CHANNELS 3 Zrotation Xrotation Yrotation
                End Site
                {
                  OFFSET 0 0 0
                }
              }
            }
          }
        }
      }
    }
  }
  JOINT HipLeft
  {
    OFFSET -7.787625 1.670075 -6.059547
    CHANNELS 3 Zrotation Xrotation Yrotation
    JOINT KneeLeft
    {
      OFFSET -8.388855 -33.391537 4.556536
      CHANNELS 3 Zrotation Xrotation Yrotation
      JOINT AnkleLeft
      {
        OFFSET -3.330584 -32.846061 7.172649
        CHANNELS 3 Zrotation Xrotation Yrotation
        JOINT FootLeft
        {
          OFFSET 1.810025 -3.635351 -10.151745
          CHANNELS 3 Zrotation Xrotation Yrotation
          End Site
          {
            OFFSET 0 0 0
          }
        }
      }
    }
  }
  JOINT HipRight
  {
    OFFSET 6.813233 -0.148073 -0.998040
    CHANNELS 3 Zrotation Xrotation Yrotation
    JOINT KneeRight
    {
      OFFSET -5.882636 -34.644513 7.372237
      CHANNELS 3 Zrotation Xrotation Yrotation
      JOINT AnkleRight
      {
        OFFSET -7.086149 -33.083425 7.787393
        CHANNELS 3 Zrotation Xrotation Yrotation
        JOINT FootRight
        {
          OFFSET -1.236968 -5.755092 -5.524627
          CHANNELS 3 Zrotation Xrotation Yrotation
          End Site
          {
            OFFSET 0 0 0
          }
        }
      }
    }
  }
}
MOTION
Frames: 9
Frame Time: 0.033333
46.581579 74.448969 335.057575 1.474343 -2.601254 -28.330145 0.506419 0.123117 28.420008 0.229022 0.046448 0.088939 -13.214907 6.093805 -0.606118 0.000000 0.000000 0.000000 15.654767 -0.757591 -1.795901 -5.474799 5.096601 -1.006872 -64.634338 -4.544888 8.709020 64.041018 38.075374 4.487299 0.000000 0.000000 0.000000 0.000000 0.000000 0.000000 9.547772 -37.652945 -0.034177 32.121088 -41.709386 -19.918272 33.990847 45.232076 -77.749317 -19.463291 -14.763624 -20.357297 0.000000 0.000000 0.000000 0.000000 0.000000 0.000000 -5.236633 2.921716 27.650537 2.719180 -4.275575 1.333568 2.155026 -1.074356 -11.014777 0.000000 0.000000 0.000000 -1.553302 1.967557 28.612773 -3.317367 0.094857 -0.761137 8.412966 -1.679491 -5.029606 0.000000 0.000000 0.000000
46.265969 74.432984 334.581768 1.480757 -3.012258 -28.682577 0.384347 0.111071 28.775305 0.182033 0.051170 0.079982 -13.765228 6.530572 -0.499417 0.000000 0.000000 0.000000 15.266586 -1.385607 -0.463519 -7.891495 5.913740 -1.568884 -66.918230 -4.655087 7.370784 67.827908 39.539991 2.622337 0.000000 0.000000 0.000000 0.000000 0.000000 0.000000 14.597299 -45.217252 2.117345 30.648831 -46.628749 -25.207787 42.981901 21.385163 -60.586160 -20.502294 -30.850684 -31.726590 0.000000 0.000000 0.000000 0.000000 0.000000 0.000000 -5.225319 3.107840 28.099516 2.703164 -4.203188 1.298470 3.576055 5.885386 -10.369864 0.000000 0.000000 0.000000 -1.297086 2.294816 29.086362 -3.595831 0.054580 -0.789327 8.674377 -0.718244 -5.704411 0.000000 0.000000 0.000000
45.932551 74.503934 334.090945 1.483568 -3.472175 -28.703949 0.366436 0.080976 28.801723 0.158683 0.029166 0.075746 -13.646036 6.277714 -0.237149 0.000000 0.000000 0.000000 13.547741 -1.992267 1.314924 -11.342675 6.264525 -1.891205 -63.994960 -3.591058 9.333353 68.460283 40.202848 -2.979961 0.000000 0.000000 0.000000 0.000000 0.000000 0.000000 21.633402 -50.697049 5.861277 26.731500 -49.371903 -31.670826 53.206944 21.206721 -33.057366 -33.118358 -31.505673 -32.881416 0.000000 0.000000 0.000000 0.000000 0.000000 0.000000 -4.984909 3.263793 28.279922 2.436659 -3.760891 1.139313 3.661487 6.533811 -10.265991 0.000000 0.000000 0.000000 -1.140512 2.895557 29.191193 -3.930401 -0.691345 -0.707793 8.609776 -0.141917 -5.997168 0.000000 0.000000 0.000000
45.673527 74.650801 333.624100 1.524219 -3.892095 -28.498379 0.418746 0.005152 28.604704 0.176569 -0.025548 0.077133 -13.272874 5.672882 0.098894 0.000000 0.000000 0.000000 11.329236 -2.370134 2.917865 -12.881497 6.017938 -2.421451 -62.284731 -2.619363 7.917220 69.267085 48.661234 -5.709008 0.000000 0.000000 0.000000 0.000000 0.000000 0.000000 29.302049 -53.753791 10.344655 21.461885 -49.124551 -39.610581 58.443845 38.352149 -0.253955 -46.197873 -19.451010 -51.943451 0.000000 0.000000 0.000000 0.000000 0.000000 0.000000 -4.960119 3.436370 28.181844 2.322365 -3.533064 1.050308 3.032286 3.592461 -10.713756 0.000000 0.000000 0.000000 -1.146364 3.594478 29.021121 -4.159183 -1.714402 -0.564158 8.368385 0.784080 -6.237867 0.000000 0.000000 0.000000
45.481397 74.817933 333.184669 1.688162 -4.398483 -27.824283 0.489391 -0.089941 27.949934 0.178283 -0.073804 0.083079 -12.144232 4.673068 0.513545 0.000000 0.000000 0.000000 10.334228 -3.665001 5.327255 -14.922374 6.510117 -3.591837 -60.437413 -1.299605 8.092426 69.618656 53.988235 -8.182374 0.000000 0.000000 0.000000 0.000000 0.000000 0.000000 39.973248 -54.948421 16.614667 14.914131 -46.474985 -47.289530 54.753516 52.860643 22.464250 -46.570030 -20.307361 -55.384843 0.000000 0.000000 0.000000 0.000000 0.000000 0.000000 -4.913845 3.699440 27.646819 1.930226 -3.170254 0.884955 2.920723 3.642847 -10.029938 0.000000 0.000000 0.000000 -1.358470 4.352665 28.366751 -4.280606 -2.802912 -0.388201 7.744205 2.080124 -6.194577 0.000000 0.000000 0.000000
45.343426 75.014170 332.797571 1.888464 -4.885234 -26.487359 0.558672 -0.173990 26.636239 0.182742 -0.115829 0.091405 -10.236938 3.157072 1.006324 0.000000 0.000000 0.000000 10.243034 -5.343498 7.940697 -16.609019 7.497242 -5.024056 -59.804689 -0.143394 7.996277 69.853302 56.743517 -8.339950 0.000000 0.000000 0.000000 0.000000 0.000000 0.000000 49.842693 -52.284159 21.258860 9.074522 -44.267241 -54.016116 45.823276 62.196960 39.696205 -43.465639 -24.558103 -49.322771 0.000000 0.000000 0.000000 0.000000 0.000000 0.000000 -4.609289 4.042947 26.479162 1.183550 -2.595800 0.628072 2.696885 3.688129 -8.593884 0.000000 0.000000 0.000000 -1.612964 5.070602 27.033559 -4.287332 -3.817733 -0.201150 8.368613 2.187762 -7.186994 0.000000 0.000000 0.000000
45.199932 75.221887 332.498280 2.049615 -5.264634 -24.752146 0.626391 -0.232117 24.920384 0.195629 -0.148998 0.099604 -7.898511 1.071451 1.621795 0.000000 0.000000 0.000000 10.992626 -7.196972 10.531598 -17.884835 8.626519 -6.548320 -60.186662 0.827074 7.449996 68.772626 57.699686 -8.195876 0.000000 0.000000 0.000000 0.000000 0.000000 0.000000 57.583551 -45.509391 22.407369 4.555111 -47.352568 -58.076061 36.313874 67.007585 44.116106 -30.964693 -32.343941 -26.429364 0.000000 0.000000 0.000000 0.000000 0.000000 0.000000 -4.073611 3.916250 24.985718 0.464371 -1.492586 0.258183 2.406627 3.706560 -6.792228 0.000000 0.000000 0.000000 -1.700625 5.772920 25.293931 -4.279736 -4.768138 -0.020820 6.203487 3.642106 -5.572580 0.000000 0.000000 0.000000
45.037353 75.379605 332.242920 2.172897 -5.552569 -22.629571 0.654917 -0.280834 22.813154 0.195275 -0.169059 0.105012 -5.057672 -0.812590 2.207384 0.000000 0.000000 0.000000 12.431490 -9.056513 13.026128 -19.915788 10.603950 -7.604174 -59.084333 1.692980 4.910601 66.395890 57.541028 -4.542459 0.000000 0.000000 0.000000 0.000000 0.000000 0.000000 64.918476 -37.094723 21.611766 0.172518 -48.744254 -60.412411 22.993994 70.891584 62.856976 -20.164605 -28.408369 -3.218198 0.000000 0.000000 0.000000 0.000000 0.000000 0.000000 -3.016587 4.650542 22.989146 -0.932864 -0.964275 -0.020446 1.659768 3.745223 -3.944793 0.000000 0.000000 0.000000 -1.689042 6.320184 23.157031 -4.123611 -5.538604 0.168497 5.136230 4.102597 -4.932759 0.000000 0.000000 0.000000
44.883272 75.465849 332.077713 2.248415 -5.758195 -19.989275 0.655400 -0.318501 20.182865 0.200207 -0.185023 0.108254 -1.930716 -2.449947 2.767794 0.000000 0.000000 0.000000 14.312692 -10.586475 15.081971 -21.606399 12.679158 -8.382385 -57.182430 2.319555 2.232608 62.803018 57.135250 -1.094152 0.000000 0.000000 0.000000 0.000000 0.000000 0.000000 70.513655 -26.935134 18.077586 -1.929297 -53.188672 -57.675887 43.888939 67.610715 32.042979 -6.256651 -10.363269 42.758787 0.000000 0.000000 0.000000 0.000000 0.000000 0.000000 -1.861321 4.908287 20.510139 -2.177897 0.526332 -0.417717 0.767081 3.134288 -0.557691 0.000000 0.000000 0.000000 -1.521192 6.657049 20.505058 -3.934458 -5.957497 0.305698 4.143712 4.627723 -4.302510 0.000000 0.000000 0.000000
